{
  "accessors": [
    {
      "bufferView": 2,
      "componentType": 5126,
      "count": 932,
      "max": [
        390.86636352539062,
        373.14321899414062,
        204.54510498046875
      ],
      "min": [
        -390.69131469726562,
        -367.33944702148438,
        42.079261779785156
      ],
      "type": "VEC3"
    },
    {
      "bufferView": 2,
      "byteOffset": 11184,
      "componentType": 5126,
      "count": 932,
      "max": [
        1,
        1,
        1
      ],
      "min": [
        -1,
        -1,
        -1
      ],
      "type": "VEC3"
    },
    {
      "bufferView": 3,
      "componentType": 5126,
      "count": 932,
      "max": [
        1,
        1,
        1,
        1
      ],
      "min": [
        -0.99378705024719238,
        -1,
        -1,
        -1
      ],
      "type": "VEC4"
    },
    {
      "bufferView": 1,
      "componentType": 5126,
      "count": 932,
      "max": [
        2.1717629432678223,
        1.9853520393371582
      ],
      "min": [
        -0.59965002536773682,
        0.0046509997919201851
      ],
      "type": "VEC2"
    },
    {
      "bufferView": 0,
      "componentType": 5125,
      "count": 1737,
      "max": [
        931
      ],
      "min": [
        0
      ],
      "type": "SCALAR"
    },
    {
      "bufferView": 2,
      "byteOffset": 22368,
      "componentType": 5126,
      "count": 13187,
      "max": [
        392.78854370117188,
        448.98428344726562,
        204.54510498046875
      ],
      "min": [
        -392.78854370117188,
        -438.27392578125,
        -1.2043591737747192
      ],
      "type": "VEC3"
    },
    {
      "bufferView": 2,
      "byteOffset": 180612,
      "componentType": 5126,
      "count": 13187,
      "max": [
        1,
        1,
        1
      ],
      "min": [
        -1,
        -1,
        -1
      ],
      "type": "VEC3"
    },
    {
      "bufferView": 3,
      "byteOffset": 14912,
      "componentType": 5126,
      "count": 13187,
      "max": [
        1,
        1,
        1,
        1
      ],
      "min": [
        -1,
        -1,
        -1,
        -1
      ],
      "type": "VEC4"
    },
    {
      "bufferView": 1,
      "byteOffset": 7456,
      "componentType": 5126,
      "count": 13187,
      "max": [
        1.0457409620285034,
        1.2184890508651733
      ],
      "min": [
        -0.37091198563575745,
        0.0042409999296069145
      ],
      "type": "VEC2"
    },
    {
      "bufferView": 0,
      "byteOffset": 6948,
      "componentType": 5125,
      "count": 26571,
      "max": [
        13186
      ],
      "min": [
        0
      ],
      "type": "SCALAR"
    },
    {
      "bufferView": 2,
      "byteOffset": 338856,
      "componentType": 5126,
      "count": 264,
      "max": [
        138.40815734863281,
        447.66619873046875,
        127.93391418457031
      ],
      "min": [
        -138.408203125,
        402.01504516601562,
        67.106300354003906
      ],
      "type": "VEC3"
    },
    {
      "bufferView": 2,
      "byteOffset": 342024,
      "componentType": 5126,
      "count": 264,
      "max": [
        0.56097370386123657,
        0.97812104225158691,
        0.54692733287811279
      ],
      "min": [
        -0.56099456548690796,
        0.82781952619552612,
        -0.56072133779525757
      ],
      "type": "VEC3"
    },
    {
      "bufferView": 3,
      "byteOffset": 225904,
      "componentType": 5126,
      "count": 264,
      "max": [
        0.99999183416366577,
        0.5609736442565918,
        0.072817049920558929,
        1
      ],
      "min": [
        -0.99999183416366577,
        -0.56099456548690796,
        -0.05822918564081192,
        -1
      ],
      "type": "VEC4"
    },
    {
      "bufferView": 1,
      "byteOffset": 112952,
      "componentType": 5126,
      "count": 264,
      "max": [
        0.81134098768234253,
        0.94164097309112549
      ],
      "min": [
        0.051552999764680862,
        0.18661600351333618
      ],
      "type": "VEC2"
    },
    {
      "bufferView": 0,
      "byteOffset": 113232,
      "componentType": 5125,
      "count": 1134,
      "max": [
        263
      ],
      "min": [
        0
      ],
      "type": "SCALAR"
    }
  ],
  "asset": {
    "extras": {
      "author": "Tributon (https://sketchfab.com/doctor10)",
      "license": "CC-BY-4.0 (http://creativecommons.org/licenses/by/4.0/)",
      "source": "https://sketchfab.com/models/0605e26c148d4686a8451c5d72499fa6",
      "title": "Lucrehulk Class Battleship V1"
    },
    "generator": "Sketchfab-3.18.0",
    "version": "2.0"
  },
  "bufferViews": [
    {
      "buffer": 0,
      "byteLength": 117768,
      "byteOffset": 0,
      "name": "floatBufferViews",
      "target": 34963
    },
    {
      "buffer": 0,
      "byteLength": 115064,
      "byteOffset": 117768,
      "byteStride": 8,
      "name": "floatBufferViews",
      "target": 34962
    },
    {
      "buffer": 0,
      "byteLength": 345192,
      "byteOffset": 232832,
      "byteStride": 12,
      "name": "floatBufferViews",
      "target": 34962
    },
    {
      "buffer": 0,
      "byteLength": 230128,
      "byteOffset": 578024,
      "byteStride": 16,
      "name": "floatBufferViews",
      "target": 34962
    }
  ],
  "buffers": [
    {
      "byteLength": 808152,
      "uri": "scene.bin"
    }
  ],
  "images": [
    {
      "uri": "textures/SeV_lucrehulk_parts_baseColor.jpeg"
    },
    {
      "uri": "textures/Sev_lucrehulk_baseColor.jpeg"
    },
    {
      "uri": "textures/Sev_lucrehulk_engine_baseColor.jpeg"
    }
  ],
  "materials": [
    {
      "doubleSided": true,
      "emissiveFactor": [
        0,
        0,
        0
      ],
      "name": "SeV_lucrehulk_parts",
      "pbrMetallicRoughness": {
        "baseColorFactor": [
          1,
          1,
          1,
          1
        ],
        "baseColorTexture": {
          "index": 0,
          "texCoord": 0
        },
        "metallicFactor": 0,
        "roughnessFactor": 0.95770514949999996
      }
    },
    {
      "doubleSided": true,
      "emissiveFactor": [
        0,
        0,
        0
      ],
      "name": "Sev_lucrehulk",
      "pbrMetallicRoughness": {
        "baseColorFactor": [
          1,
          1,
          1,
          1
        ],
        "baseColorTexture": {
          "index": 1,
          "texCoord": 0
        },
        "metallicFactor": 0.84556250570000002,
        "roughnessFactor": 0.57681250569999998
      }
    },
    {
      "doubleSided": true,
      "emissiveFactor": [
        0,
        0,
        0
      ],
      "name": "Sev_lucrehulk_engine",
      "pbrMetallicRoughness": {
        "baseColorFactor": [
          1,
          1,
          1,
          1
        ],
        "baseColorTexture": {
          "index": 2,
          "texCoord": 0
        },
        "metallicFactor": 0,
        "roughnessFactor": 0.95770514949999996
      }
    }
  ],
  "meshes": [
    {
      "name": "cis_lucrehulk_reference_SeV_lucrehulk_parts_0",
      "primitives": [
        {
          "attributes": {
            "NORMAL": 1,
            "POSITION": 0,
            "TANGENT": 2,
            "TEXCOORD_0": 3
          },
          "indices": 4,
          "material": 0,
          "mode": 4
        }
      ]
    },
    {
      "name": "cis_lucrehulk_reference_Sev_lucrehulk_0",
      "primitives": [
        {
          "attributes": {
            "NORMAL": 6,
            "POSITION": 5,
            "TANGENT": 7,
            "TEXCOORD_0": 8
          },
          "indices": 9,
          "material": 1,
          "mode": 4
        }
      ]
    },
    {
      "name": "cis_lucrehulk_reference_Sev_lucrehulk_engine_0",
      "primitives": [
        {
          "attributes": {
            "NORMAL": 11,
            "POSITION": 10,
            "TANGENT": 12,
            "TEXCOORD_0": 13
          },
          "indices": 14,
          "material": 2,
          "mode": 4
        }
      ]
    }
  ],
  "nodes": [
    {
      "children": [
        1
      ],
      "name": "RootNode (gltf orientation matrix)",
      "rotation": [
        -0.70710678118654746,
        -0,
        -0,
        0.70710678118654757
      ]
    },
    {
      "children": [
        2
      ],
      "name": "RootNode (model correction matrix)"
    },
    {
      "children": [
        3
      ],
      "matrix": [
        1,
        0,
        0,
        0,
        0,
        0,
        1,
        0,
        0,
        -1,
        0,
        0,
        0,
        0,
        0,
        1
      ],
      "name": "Lucrehulk.fbx"
    },
    {
      "children": [
        4
      ],
      "name": "RootNode"
    },
    {
      "children": [
        5,
        6,
        7
      ],
      "matrix": [
        100,
        0,
        0,
        0,
        0,
        -1.6292067939183141e-05,
        -99.999999999998678,
        0,
        0,
        99.999999999998678,
        -1.6292067939183141e-05,
        0,
        0,
        0,
        0,
        1
      ],
      "name": "cis_lucrehulk_reference"
    },
    {
      "mesh": 0,
      "name": "cis_lucrehulk_reference_SeV_lucrehulk_parts_0"
    },
    {
      "mesh": 1,
      "name": "cis_lucrehulk_reference_Sev_lucrehulk_0"
    },
    {
      "mesh": 2,
      "name": "cis_lucrehulk_reference_Sev_lucrehulk_engine_0"
    }
  ],
  "samplers": [
    {
      "magFilter": 9729,
      "minFilter": 9987,
      "wrapS": 10497,
      "wrapT": 10497
    }
  ],
  "scene": 0,
  "scenes": [
    {
      "name": "OSG_Scene",
      "nodes": [
        0
      ]
    }
  ],
  "textures": [
    {
      "sampler": 0,
      "source": 0
    },
    {
      "sampler": 0,
      "source": 1
    },
    {
      "sampler": 0,
      "source": 2
    }
  ]
}

