{
  "accessors": [
    {
      "bufferView": 2,
      "componentType": 5126,
      "count": 3728,
      "max": [
        1.2574688196182251,
        6.391047477722168,
        7.3521108627319336
      ],
      "min": [
        -1.2590105533599854,
        -8.0937709808349609,
        -5.1906256675720215
      ],
      "type": "VEC3"
    },
    {
      "bufferView": 2,
      "byteOffset": 44736,
      "componentType": 5126,
      "count": 3728,
      "max": [
        1,
        1,
        1
      ],
      "min": [
        -1,
        -1,
        -1
      ],
      "type": "VEC3"
    },
    {
      "bufferView": 3,
      "componentType": 5126,
      "count": 3728,
      "max": [
        1,
        1,
        1,
        1
      ],
      "min": [
        -1,
        -1,
        -1,
        -1
      ],
      "type": "VEC4"
    },
    {
      "bufferView": 1,
      "componentType": 5126,
      "count": 3728,
      "max": [
        1,
        1.0000002384185791
      ],
      "min": [
        -8.9406967163085938e-08,
        -0.0013045971281826496
      ],
      "type": "VEC2"
    },
    {
      "bufferView": 0,
      "componentType": 5125,
      "count": 5874,
      "max": [
        3727
      ],
      "min": [
        0
      ],
      "type": "SCALAR"
    },
    {
      "bufferView": 2,
      "byteOffset": 89472,
      "componentType": 5126,
      "count": 11554,
      "max": [
        0.99000561237335205,
        5.55950927734375,
        8.2368059158325195
      ],
      "min": [
        -0.98966073989868164,
        -9.3586301803588867,
        -5.3375773429870605
      ],
      "type": "VEC3"
    },
    {
      "bufferView": 2,
      "byteOffset": 228120,
      "componentType": 5126,
      "count": 11554,
      "max": [
        1,
        1,
        1
      ],
      "min": [
        -1,
        -1,
        -1
      ],
      "type": "VEC3"
    },
    {
      "bufferView": 3,
      "byteOffset": 59648,
      "componentType": 5126,
      "count": 11554,
      "max": [
        1,
        1,
        1,
        1
      ],
      "min": [
        -1,
        -1,
        -1,
        -1
      ],
      "type": "VEC4"
    },
    {
      "bufferView": 1,
      "byteOffset": 29824,
      "componentType": 5126,
      "count": 11554,
      "max": [
        1,
        1
      ],
      "min": [
        -8.9406967163085938e-08,
        -0.0013045971281826496
      ],
      "type": "VEC2"
    },
    {
      "bufferView": 0,
      "byteOffset": 23496,
      "componentType": 5125,
      "count": 17826,
      "max": [
        11553
      ],
      "min": [
        0
      ],
      "type": "SCALAR"
    },
    {
      "bufferView": 2,
      "byteOffset": 366768,
      "componentType": 5126,
      "count": 4891,
      "max": [
        1.261350154876709,
        6.391047477722168,
        7.1681256294250488
      ],
      "min": [
        -1.2628918886184692,
        -8.7312068939208984,
        -5.2409734725952148
      ],
      "type": "VEC3"
    },
    {
      "bufferView": 2,
      "byteOffset": 425460,
      "componentType": 5126,
      "count": 4891,
      "max": [
        1,
        1,
        1
      ],
      "min": [
        -1,
        -1,
        -1
      ],
      "type": "VEC3"
    },
    {
      "bufferView": 3,
      "byteOffset": 244512,
      "componentType": 5126,
      "count": 4891,
      "max": [
        1,
        1,
        1,
        1
      ],
      "min": [
        -1,
        -1,
        -1,
        -1
      ],
      "type": "VEC4"
    },
    {
      "bufferView": 1,
      "byteOffset": 122256,
      "componentType": 5126,
      "count": 4891,
      "max": [
        1,
        1.0000002384185791
      ],
      "min": [
        -8.9406967163085938e-08,
        0
      ],
      "type": "VEC2"
    },
    {
      "bufferView": 0,
      "byteOffset": 94800,
      "componentType": 5125,
      "count": 7608,
      "max": [
        4890
      ],
      "min": [
        0
      ],
      "type": "SCALAR"
    },
    {
      "bufferView": 2,
      "byteOffset": 484152,
      "componentType": 5126,
      "count": 5780,
      "max": [
        1.2410829067230225,
        6.167844295501709,
        7.2964396476745605
      ],
      "min": [
        -1.2426246404647827,
        -8.2349834442138672,
        -5.636810302734375
      ],
      "type": "VEC3"
    },
    {
      "bufferView": 2,
      "byteOffset": 553512,
      "componentType": 5126,
      "count": 5780,
      "max": [
        1,
        1,
        1
      ],
      "min": [
        -1,
        -1,
        -1
      ],
      "type": "VEC3"
    },
    {
      "bufferView": 3,
      "byteOffset": 322768,
      "componentType": 5126,
      "count": 5780,
      "max": [
        1,
        1,
        1,
        1
      ],
      "min": [
        -1,
        -1,
        -1,
        -1
      ],
      "type": "VEC4"
    },
    {
      "bufferView": 1,
      "byteOffset": 161384,
      "componentType": 5126,
      "count": 5780,
      "max": [
        1,
        1
      ],
      "min": [
        -8.9406967163085938e-08,
        0
      ],
      "type": "VEC2"
    },
    {
      "bufferView": 0,
      "byteOffset": 125232,
      "componentType": 5125,
      "count": 8820,
      "max": [
        5779
      ],
      "min": [
        0
      ],
      "type": "SCALAR"
    },
    {
      "bufferView": 2,
      "byteOffset": 622872,
      "componentType": 5126,
      "count": 90,
      "max": [
        1.1891906261444092,
        5.9917101860046387,
        4.3347187042236328
      ],
      "min": [
        -1.190732479095459,
        5.9015865325927734,
        -4.3049373626708984
      ],
      "type": "VEC3"
    },
    {
      "bufferView": 2,
      "byteOffset": 623952,
      "componentType": 5126,
      "count": 90,
      "max": [
        0.85989707708358765,
        1,
        0.12904815375804901
      ],
      "min": [
        -0.8598969578742981,
        0.50939041376113892,
        -0.12904752790927887
      ],
      "type": "VEC3"
    },
    {
      "bufferView": 3,
      "byteOffset": 415248,
      "componentType": 5126,
      "count": 90,
      "max": [
        0.11487024277448654,
        0,
        0,
        1
      ],
      "min": [
        0,
        -5.8375526634790731e-08,
        -0.99338060617446899,
        -1
      ],
      "type": "VEC4"
    },
    {
      "bufferView": 1,
      "byteOffset": 207624,
      "componentType": 5126,
      "count": 90,
      "max": [
        0.9044002890586853,
        0.42828613519668579
      ],
      "min": [
        0.5955997109413147,
        0.071713961660861969
      ],
      "type": "VEC2"
    },
    {
      "bufferView": 0,
      "byteOffset": 160512,
      "componentType": 5125,
      "count": 144,
      "max": [
        89
      ],
      "min": [
        0
      ],
      "type": "SCALAR"
    },
    {
      "bufferView": 2,
      "byteOffset": 625032,
      "componentType": 5126,
      "count": 20,
      "max": [
        0.10348550975322723,
        -7.2657952308654785,
        4.9731936454772949
      ],
      "min": [
        -0.10502786934375763,
        -8.6980905532836914,
        3.7054934501647949
      ],
      "type": "VEC3"
    },
    {
      "bufferView": 2,
      "byteOffset": 625272,
      "componentType": 5126,
      "count": 20,
      "max": [
        1,
        9.3095335884640917e-09,
        0
      ],
      "min": [
        -1,
        -1,
        0
      ],
      "type": "VEC3"
    },
    {
      "bufferView": 3,
      "byteOffset": 416688,
      "componentType": 5126,
      "count": 20,
      "max": [
        3.7445701650540286e-08,
        0,
        1,
        1
      ],
      "min": [
        0,
        0,
        0,
        1
      ],
      "type": "VEC4"
    },
    {
      "bufferView": 1,
      "byteOffset": 208344,
      "componentType": 5126,
      "count": 20,
      "max": [
        0.54166662693023682,
        1
      ],
      "min": [
        0.45833328366279602,
        0
      ],
      "type": "VEC2"
    },
    {
      "bufferView": 0,
      "byteOffset": 161088,
      "componentType": 5125,
      "count": 30,
      "max": [
        19
      ],
      "min": [
        0
      ],
      "type": "SCALAR"
    },
    {
      "bufferView": 2,
      "byteOffset": 625512,
      "componentType": 5126,
      "count": 24,
      "max": [
        1,
        1,
        1
      ],
      "min": [
        -1,
        -1,
        -1
      ],
      "type": "VEC3"
    },
    {
      "bufferView": 2,
      "byteOffset": 625800,
      "componentType": 5126,
      "count": 24,
      "max": [
        1,
        1,
        1
      ],
      "min": [
        -1,
        -1,
        -1
      ],
      "type": "VEC3"
    },
    {
      "bufferView": 3,
      "byteOffset": 417008,
      "componentType": 5126,
      "count": 24,
      "max": [
        1,
        0,
        1,
        1
      ],
      "min": [
        -1,
        0,
        0,
        1
      ],
      "type": "VEC4"
    },
    {
      "bufferView": 1,
      "byteOffset": 208504,
      "componentType": 5126,
      "count": 24,
      "max": [
        0.875,
        1
      ],
      "min": [
        0.125,
        0
      ],
      "type": "VEC2"
    },
    {
      "bufferView": 0,
      "byteOffset": 161208,
      "componentType": 5125,
      "count": 36,
      "max": [
        23
      ],
      "min": [
        0
      ],
      "type": "SCALAR"
    },
    {
      "bufferView": 2,
      "byteOffset": 626088,
      "componentType": 5126,
      "count": 24,
      "max": [
        1,
        1,
        1
      ],
      "min": [
        -1,
        -1,
        -1
      ],
      "type": "VEC3"
    },
    {
      "bufferView": 2,
      "byteOffset": 626376,
      "componentType": 5126,
      "count": 24,
      "max": [
        1,
        1,
        1
      ],
      "min": [
        -1,
        -1,
        -1
      ],
      "type": "VEC3"
    },
    {
      "bufferView": 3,
      "byteOffset": 417392,
      "componentType": 5126,
      "count": 24,
      "max": [
        1,
        0,
        1,
        1
      ],
      "min": [
        -1,
        0,
        0,
        1
      ],
      "type": "VEC4"
    },
    {
      "bufferView": 1,
      "byteOffset": 208696,
      "componentType": 5126,
      "count": 24,
      "max": [
        0.875,
        1
      ],
      "min": [
        0.125,
        0
      ],
      "type": "VEC2"
    },
    {
      "bufferView": 0,
      "byteOffset": 161352,
      "componentType": 5125,
      "count": 36,
      "max": [
        23
      ],
      "min": [
        0
      ],
      "type": "SCALAR"
    },
    {
      "bufferView": 2,
      "byteOffset": 626664,
      "componentType": 5126,
      "count": 24,
      "max": [
        1,
        1,
        1
      ],
      "min": [
        -1,
        -1,
        -1
      ],
      "type": "VEC3"
    },
    {
      "bufferView": 2,
      "byteOffset": 626952,
      "componentType": 5126,
      "count": 24,
      "max": [
        1,
        1,
        1
      ],
      "min": [
        -1,
        -1,
        -1
      ],
      "type": "VEC3"
    },
    {
      "bufferView": 3,
      "byteOffset": 417776,
      "componentType": 5126,
      "count": 24,
      "max": [
        1,
        0,
        1,
        1
      ],
      "min": [
        -1,
        0,
        0,
        1
      ],
      "type": "VEC4"
    },
    {
      "bufferView": 1,
      "byteOffset": 208888,
      "componentType": 5126,
      "count": 24,
      "max": [
        0.875,
        1
      ],
      "min": [
        0.125,
        0
      ],
      "type": "VEC2"
    },
    {
      "bufferView": 0,
      "byteOffset": 161496,
      "componentType": 5125,
      "count": 36,
      "max": [
        23
      ],
      "min": [
        0
      ],
      "type": "SCALAR"
    },
    {
      "bufferView": 2,
      "byteOffset": 627240,
      "componentType": 5126,
      "count": 24,
      "max": [
        1,
        1,
        1
      ],
      "min": [
        -1,
        -1,
        -1
      ],
      "type": "VEC3"
    },
    {
      "bufferView": 2,
      "byteOffset": 627528,
      "componentType": 5126,
      "count": 24,
      "max": [
        1,
        1,
        1
      ],
      "min": [
        -1,
        -1,
        -1
      ],
      "type": "VEC3"
    },
    {
      "bufferView": 3,
      "byteOffset": 418160,
      "componentType": 5126,
      "count": 24,
      "max": [
        1,
        0,
        1,
        1
      ],
      "min": [
        -1,
        0,
        0,
        1
      ],
      "type": "VEC4"
    },
    {
      "bufferView": 1,
      "byteOffset": 209080,
      "componentType": 5126,
      "count": 24,
      "max": [
        0.875,
        1
      ],
      "min": [
        0.125,
        0
      ],
      "type": "VEC2"
    },
    {
      "bufferView": 0,
      "byteOffset": 161640,
      "componentType": 5125,
      "count": 36,
      "max": [
        23
      ],
      "min": [
        0
      ],
      "type": "SCALAR"
    }
  ],
  "asset": {
    "extras": {
      "author": "iedalton (https://sketchfab.com/iedalton)",
      "license": "CC-BY-4.0 (http://creativecommons.org/licenses/by/4.0/)",
      "source": "https://sketchfab.com/3d-models/star-wars-republic-frigate-b53f3436fa114d7b939789c24c92b9de",
      "title": "Star Wars Republic Frigate"
    },
    "generator": "Sketchfab-5.98.0",
    "version": "2.0"
  },
  "bufferViews": [
    {
      "buffer": 0,
      "byteLength": 161784,
      "byteOffset": 0,
      "name": "floatBufferViews",
      "target": 34963
    },
    {
      "buffer": 0,
      "byteLength": 209272,
      "byteOffset": 161784,
      "byteStride": 8,
      "name": "floatBufferViews",
      "target": 34962
    },
    {
      "buffer": 0,
      "byteLength": 627816,
      "byteOffset": 371056,
      "byteStride": 12,
      "name": "floatBufferViews",
      "target": 34962
    },
    {
      "buffer": 0,
      "byteLength": 418544,
      "byteOffset": 998872,
      "byteStride": 16,
      "name": "floatBufferViews",
      "target": 34962
    }
  ],
  "buffers": [
    {
      "byteLength": 1417416,
      "uri": "scene.bin"
    }
  ],
  "materials": [
    {
      "doubleSided": true,
      "name": "Cube__0",
      "pbrMetallicRoughness": {
        "baseColorFactor": [
          1,
          1,
          1,
          1
        ],
        "metallicFactor": 0,
        "roughnessFactor": 0.59999999999999998
      }
    },
    {
      "doubleSided": true,
      "emissiveFactor": [
        0,
        0,
        0
      ],
      "name": "Base",
      "pbrMetallicRoughness": {
        "baseColorFactor": [
          0.61830099999999999,
          0.61830099999999999,
          0.61830099999999999,
          1
        ],
        "metallicFactor": 0,
        "roughnessFactor": 0.8617436933
      }
    },
    {
      "doubleSided": true,
      "emissiveFactor": [
        0,
        0,
        0
      ],
      "name": "Base2",
      "pbrMetallicRoughness": {
        "baseColorFactor": [
          0.371556,
          0.371556,
          0.371556,
          1
        ],
        "metallicFactor": 0,
        "roughnessFactor": 0.91691755269999997
      }
    },
    {
      "doubleSided": true,
      "emissiveFactor": [
        0,
        0,
        0
      ],
      "name": "material",
      "pbrMetallicRoughness": {
        "baseColorFactor": [
          0.80000000000000004,
          0.100693,
          0.085323800000000005,
          1
        ],
        "metallicFactor": 0,
        "roughnessFactor": 0.94448826809999997
      }
    },
    {
      "doubleSided": true,
      "emissiveFactor": [
        0,
        0,
        0
      ],
      "name": "Back",
      "pbrMetallicRoughness": {
        "baseColorFactor": [
          0.052304799999999999,
          0.052304799999999999,
          0.052304799999999999,
          1
        ],
        "metallicFactor": 0,
        "roughnessFactor": 0.98830429119999996
      }
    },
    {
      "doubleSided": true,
      "emissiveFactor": [
        1,
        1,
        1
      ],
      "name": "Engine",
      "pbrMetallicRoughness": {
        "baseColorFactor": [
          0,
          0,
          0,
          1
        ],
        "metallicFactor": 0,
        "roughnessFactor": 0.78091097699793355
      }
    },
    {
      "doubleSided": true,
      "emissiveFactor": [
        0,
        0,
        0
      ],
      "name": "Glass",
      "pbrMetallicRoughness": {
        "baseColorFactor": [
          0.80000000000000004,
          0.40058300000000002,
          0.149752,
          1
        ],
        "metallicFactor": 0,
        "roughnessFactor": 0.8954886299
      }
    }
  ],
  "meshes": [
    {
      "name": "Cube.001_Base_0",
      "primitives": [
        {
          "attributes": {
            "NORMAL": 1,
            "POSITION": 0,
            "TANGENT": 2,
            "TEXCOORD_0": 3
          },
          "indices": 4,
          "material": 1,
          "mode": 4
        }
      ]
    },
    {
      "name": "Cube.001_Base2_0",
      "primitives": [
        {
          "attributes": {
            "NORMAL": 6,
            "POSITION": 5,
            "TANGENT": 7,
            "TEXCOORD_0": 8
          },
          "indices": 9,
          "material": 2,
          "mode": 4
        }
      ]
    },
    {
      "name": "Cube.001_Red_0",
      "primitives": [
        {
          "attributes": {
            "NORMAL": 11,
            "POSITION": 10,
            "TANGENT": 12,
            "TEXCOORD_0": 13
          },
          "indices": 14,
          "material": 3,
          "mode": 4
        }
      ]
    },
    {
      "name": "Cube.001_B;ack_0",
      "primitives": [
        {
          "attributes": {
            "NORMAL": 16,
            "POSITION": 15,
            "TANGENT": 17,
            "TEXCOORD_0": 18
          },
          "indices": 19,
          "material": 4,
          "mode": 4
        }
      ]
    },
    {
      "name": "Cube.001_Engine_0",
      "primitives": [
        {
          "attributes": {
            "NORMAL": 21,
            "POSITION": 20,
            "TANGENT": 22,
            "TEXCOORD_0": 23
          },
          "indices": 24,
          "material": 5,
          "mode": 4
        }
      ]
    },
    {
      "name": "Cube.001_Glass_0",
      "primitives": [
        {
          "attributes": {
            "NORMAL": 26,
            "POSITION": 25,
            "TANGENT": 27,
            "TEXCOORD_0": 28
          },
          "indices": 29,
          "material": 6,
          "mode": 4
        }
      ]
    },
    {
      "name": "Cube__0",
      "primitives": [
        {
          "attributes": {
            "NORMAL": 31,
            "POSITION": 30,
            "TANGENT": 32,
            "TEXCOORD_0": 33
          },
          "indices": 34,
          "material": 0,
          "mode": 4
        }
      ]
    },
    {
      "name": "Cube.002__0",
      "primitives": [
        {
          "attributes": {
            "NORMAL": 36,
            "POSITION": 35,
            "TANGENT": 37,
            "TEXCOORD_0": 38
          },
          "indices": 39,
          "material": 0,
          "mode": 4
        }
      ]
    },
    {
      "name": "Cube.003__0",
      "primitives": [
        {
          "attributes": {
            "NORMAL": 41,
            "POSITION": 40,
            "TANGENT": 42,
            "TEXCOORD_0": 43
          },
          "indices": 44,
          "material": 0,
          "mode": 4
        }
      ]
    },
    {
      "name": "Cube.004__0",
      "primitives": [
        {
          "attributes": {
            "NORMAL": 46,
            "POSITION": 45,
            "TANGENT": 47,
            "TEXCOORD_0": 48
          },
          "indices": 49,
          "material": 0,
          "mode": 4
        }
      ]
    }
  ],
  "nodes": [
    {
      "children": [
        1
      ],
      "name": "RootNode (gltf orientation matrix)",
      "rotation": [
        -0.70710678118654746,
        -0,
        -0,
        0.70710678118654757
      ]
    },
    {
      "children": [
        2
      ],
      "name": "RootNode (model correction matrix)"
    },
    {
      "children": [
        3
      ],
      "matrix": [
        1,
        0,
        0,
        0,
        0,
        0,
        1,
        0,
        0,
        -1,
        0,
        0,
        0,
        0,
        0,
        1
      ],
      "name": "92e4507a9a6f4a588da497b33368710f.fbx"
    },
    {
      "children": [
        4,
        11,
        13,
        15,
        17
      ],
      "name": "RootNode"
    },
    {
      "children": [
        5,
        6,
        7,
        8,
        9,
        10
      ],
      "matrix": [
        423.2529296875,
        0,
        0,
        0,
        0,
        -1.7036810543108405e-05,
        -104.57119750976425,
        0,
        0,
        28.257328033446893,
        -4.603703081007072e-06,
        0,
        0.32640284299850464,
        361.15115356445312,
        -417.79574584960938,
        1
      ],
      "name": "Cube.001"
    },
    {
      "mesh": 0,
      "name": "Cube.001_Base_0"
    },
    {
      "mesh": 1,
      "name": "Cube.001_Base2_0"
    },
    {
      "mesh": 2,
      "name": "Cube.001_Red_0"
    },
    {
      "mesh": 3,
      "name": "Cube.001_B;ack_0"
    },
    {
      "mesh": 4,
      "name": "Cube.001_Engine_0"
    },
    {
      "mesh": 5,
      "name": "Cube.001_Glass_0"
    },
    {
      "children": [
        12
      ],
      "matrix": [
        4.0953168869018555,
        0,
        0,
        0,
        0,
        -5.7667683200255896e-06,
        -35.39617156982375,
        0,
        0,
        9.0563888549803497,
        -1.4754730250900281e-06,
        0,
        150.45799255371094,
        361.6749267578125,
        87.918685913085938,
        1
      ],
      "name": "Cube"
    },
    {
      "mesh": 6,
      "name": "Cube__0"
    },
    {
      "children": [
        14
      ],
      "matrix": [
        4.0953168869018555,
        0,
        0,
        0,
        0,
        -5.7667683200255896e-06,
        -35.39617156982375,
        0,
        0,
        5.7633180618285369,
        -9.3896369418433072e-07,
        0,
        150.45799255371094,
        366.74447631835938,
        -78.116226196289062,
        1
      ],
      "name": "Cube.002"
    },
    {
      "mesh": 7,
      "name": "Cube.002__0"
    },
    {
      "children": [
        16
      ],
      "matrix": [
        4.0953168869018555,
        0,
        0,
        0,
        0,
        -8.6407716636369389e-06,
        -53.036678314208281,
        0,
        0,
        5.7633180618285369,
        -9.3896369418433072e-07,
        0,
        150.45799255371094,
        351.49710083007812,
        -68.436820983886719,
        1
      ],
      "name": "Cube.003"
    },
    {
      "mesh": 8,
      "name": "Cube.003__0"
    },
    {
      "children": [
        18
      ],
      "matrix": [
        4.0953168869018555,
        0,
        0,
        0,
        0,
        -8.6407716636369389e-06,
        -53.036678314208281,
        0,
        0,
        5.7633180618285369,
        -9.3896369418433072e-07,
        0,
        150.45799255371094,
        351.49710083007812,
        -197.62594604492188,
        1
      ],
      "name": "Cube.004"
    },
    {
      "mesh": 9,
      "name": "Cube.004__0"
    }
  ],
  "scene": 0,
  "scenes": [
    {
      "name": "OSG_Scene",
      "nodes": [
        0
      ]
    }
  ]
}

